<mxfile host="app.diagrams.net" agent="Mozilla/5.0 (Windows NT 10.0; Win64; x64) AppleWebKit/537.36 (KHTML, like Gecko) Chrome/140.0.0.0 Safari/537.36" version="28.2.5">
  <diagram id="R2lEEEUBdFMjLlhIrx00" name="Page-1">
    <mxGraphModel dx="2192" dy="1834" grid="1" gridSize="10" guides="1" tooltips="1" connect="1" arrows="1" fold="1" page="1" pageScale="1" pageWidth="850" pageHeight="1100" math="0" shadow="0" extFonts="Permanent Marker^https://fonts.googleapis.com/css?family=Permanent+Marker">
      <root>
        <mxCell id="0" />
        <mxCell id="1" parent="0" />
        <mxCell id="NZ8LgTM2WEyXukrceLkX-13" style="edgeStyle=orthogonalEdgeStyle;rounded=0;orthogonalLoop=1;jettySize=auto;html=1;exitX=0.5;exitY=1;exitDx=0;exitDy=0;entryX=0.5;entryY=0;entryDx=0;entryDy=0;startArrow=block;startFill=1;" edge="1" parent="1" source="NZ8LgTM2WEyXukrceLkX-1" target="NZ8LgTM2WEyXukrceLkX-2">
          <mxGeometry relative="1" as="geometry" />
        </mxCell>
        <mxCell id="NZ8LgTM2WEyXukrceLkX-14" style="edgeStyle=orthogonalEdgeStyle;rounded=0;orthogonalLoop=1;jettySize=auto;html=1;exitX=0;exitY=0.5;exitDx=0;exitDy=0;entryX=1;entryY=1;entryDx=0;entryDy=0;" edge="1" parent="1" source="NZ8LgTM2WEyXukrceLkX-1" target="NZ8LgTM2WEyXukrceLkX-3">
          <mxGeometry relative="1" as="geometry" />
        </mxCell>
        <mxCell id="NZ8LgTM2WEyXukrceLkX-1" value="&lt;div style=&quot;&quot;&gt;customer&lt;/div&gt;" style="ellipse;whiteSpace=wrap;html=1;aspect=fixed;align=center;fillColor=#60a917;strokeColor=#2D7600;fontColor=#ffffff;" vertex="1" parent="1">
          <mxGeometry x="139" y="626" width="80" height="80" as="geometry" />
        </mxCell>
        <mxCell id="NZ8LgTM2WEyXukrceLkX-2" value="LOGIN/SIGNUP" style="ellipse;whiteSpace=wrap;html=1;" vertex="1" parent="1">
          <mxGeometry x="119" y="746" width="120" height="80" as="geometry" />
        </mxCell>
        <mxCell id="NZ8LgTM2WEyXukrceLkX-5" value="" style="edgeStyle=orthogonalEdgeStyle;rounded=0;orthogonalLoop=1;jettySize=auto;html=1;" edge="1" parent="1" source="NZ8LgTM2WEyXukrceLkX-3" target="NZ8LgTM2WEyXukrceLkX-4">
          <mxGeometry relative="1" as="geometry" />
        </mxCell>
        <mxCell id="NZ8LgTM2WEyXukrceLkX-3" value="Making a Delivery Request" style="ellipse;whiteSpace=wrap;html=1;" vertex="1" parent="1">
          <mxGeometry x="-66" y="526" width="120" height="80" as="geometry" />
        </mxCell>
        <mxCell id="NZ8LgTM2WEyXukrceLkX-7" value="" style="edgeStyle=orthogonalEdgeStyle;rounded=0;orthogonalLoop=1;jettySize=auto;html=1;" edge="1" parent="1" source="NZ8LgTM2WEyXukrceLkX-4" target="NZ8LgTM2WEyXukrceLkX-6">
          <mxGeometry relative="1" as="geometry" />
        </mxCell>
        <mxCell id="NZ8LgTM2WEyXukrceLkX-56" style="edgeStyle=orthogonalEdgeStyle;rounded=0;orthogonalLoop=1;jettySize=auto;html=1;entryX=0;entryY=1;entryDx=0;entryDy=0;exitX=0.5;exitY=0;exitDx=0;exitDy=0;curved=1;strokeWidth=3;strokeColor=#009900;" edge="1" parent="1" source="NZ8LgTM2WEyXukrceLkX-4" target="NZ8LgTM2WEyXukrceLkX-41">
          <mxGeometry relative="1" as="geometry">
            <Array as="points">
              <mxPoint x="179" y="480" />
              <mxPoint x="-130" y="480" />
              <mxPoint x="-130" y="640" />
              <mxPoint x="-672" y="640" />
            </Array>
          </mxGeometry>
        </mxCell>
        <mxCell id="NZ8LgTM2WEyXukrceLkX-4" value="Once Requested we Will process(Waiting Period) Until any Admin Assign a Delivery driver&amp;nbsp;" style="ellipse;whiteSpace=wrap;html=1;" vertex="1" parent="1">
          <mxGeometry x="104" y="516" width="150" height="100" as="geometry" />
        </mxCell>
        <mxCell id="NZ8LgTM2WEyXukrceLkX-9" value="&lt;b&gt;Request Accepted&lt;/b&gt;" style="edgeStyle=orthogonalEdgeStyle;rounded=0;orthogonalLoop=1;jettySize=auto;html=1;" edge="1" parent="1" source="NZ8LgTM2WEyXukrceLkX-6" target="NZ8LgTM2WEyXukrceLkX-8">
          <mxGeometry relative="1" as="geometry" />
        </mxCell>
        <mxCell id="NZ8LgTM2WEyXukrceLkX-11" value="&lt;b&gt;If Not Accepted&lt;/b&gt;" style="edgeStyle=orthogonalEdgeStyle;rounded=0;orthogonalLoop=1;jettySize=auto;html=1;" edge="1" parent="1" source="NZ8LgTM2WEyXukrceLkX-6" target="NZ8LgTM2WEyXukrceLkX-10">
          <mxGeometry relative="1" as="geometry" />
        </mxCell>
        <mxCell id="NZ8LgTM2WEyXukrceLkX-6" value="Wait for 5 Min&amp;nbsp;" style="ellipse;whiteSpace=wrap;html=1;" vertex="1" parent="1">
          <mxGeometry x="294" y="526" width="120" height="80" as="geometry" />
        </mxCell>
        <mxCell id="NZ8LgTM2WEyXukrceLkX-29" value="" style="edgeStyle=orthogonalEdgeStyle;rounded=0;orthogonalLoop=1;jettySize=auto;html=1;" edge="1" parent="1" source="NZ8LgTM2WEyXukrceLkX-8" target="NZ8LgTM2WEyXukrceLkX-28">
          <mxGeometry relative="1" as="geometry" />
        </mxCell>
        <mxCell id="NZ8LgTM2WEyXukrceLkX-8" value="Showing Accepted Status(Means Driver is Assigned) and&amp;nbsp;&lt;div&gt;Re-Directling to Delivery Tracking Page&lt;/div&gt;" style="ellipse;whiteSpace=wrap;html=1;" vertex="1" parent="1">
          <mxGeometry x="544" y="510" width="256" height="106" as="geometry" />
        </mxCell>
        <mxCell id="NZ8LgTM2WEyXukrceLkX-12" style="edgeStyle=orthogonalEdgeStyle;rounded=0;orthogonalLoop=1;jettySize=auto;html=1;exitX=0.5;exitY=1;exitDx=0;exitDy=0;entryX=0.5;entryY=1;entryDx=0;entryDy=0;" edge="1" parent="1" source="NZ8LgTM2WEyXukrceLkX-10" target="NZ8LgTM2WEyXukrceLkX-3">
          <mxGeometry relative="1" as="geometry">
            <mxPoint x="330" y="794" as="sourcePoint" />
            <mxPoint x="-20" y="620" as="targetPoint" />
            <Array as="points">
              <mxPoint x="340" y="766" />
              <mxPoint x="340" y="840" />
              <mxPoint x="-6" y="840" />
            </Array>
          </mxGeometry>
        </mxCell>
        <mxCell id="NZ8LgTM2WEyXukrceLkX-10" value="Try Again&lt;br&gt;&lt;br&gt;Acknowledging as&amp;nbsp;&lt;div&gt;&quot;No Driver is Accepting&quot;&lt;/div&gt;" style="ellipse;whiteSpace=wrap;html=1;" vertex="1" parent="1">
          <mxGeometry x="279" y="676" width="150" height="90" as="geometry" />
        </mxCell>
        <mxCell id="NZ8LgTM2WEyXukrceLkX-19" value="" style="edgeStyle=orthogonalEdgeStyle;rounded=0;orthogonalLoop=1;jettySize=auto;html=1;" edge="1" parent="1" source="NZ8LgTM2WEyXukrceLkX-15" target="NZ8LgTM2WEyXukrceLkX-16">
          <mxGeometry relative="1" as="geometry" />
        </mxCell>
        <mxCell id="NZ8LgTM2WEyXukrceLkX-15" value="Driver" style="ellipse;whiteSpace=wrap;html=1;aspect=fixed;fillColor=#1ba1e2;fontColor=#ffffff;strokeColor=#006EAF;" vertex="1" parent="1">
          <mxGeometry x="847" y="296" width="80" height="80" as="geometry" />
        </mxCell>
        <mxCell id="NZ8LgTM2WEyXukrceLkX-21" style="edgeStyle=orthogonalEdgeStyle;rounded=0;orthogonalLoop=1;jettySize=auto;html=1;entryX=0;entryY=0.5;entryDx=0;entryDy=0;" edge="1" parent="1" source="NZ8LgTM2WEyXukrceLkX-16" target="NZ8LgTM2WEyXukrceLkX-20">
          <mxGeometry relative="1" as="geometry" />
        </mxCell>
        <mxCell id="NZ8LgTM2WEyXukrceLkX-16" value="List of Assigned Deliveries&amp;nbsp;&lt;div&gt;with it&#39;s Timings&lt;/div&gt;&lt;div&gt;And Options to Start/ Stop Delivery (Pick-Up and Drop)&lt;/div&gt;" style="ellipse;whiteSpace=wrap;html=1;" vertex="1" parent="1">
          <mxGeometry x="617" y="256" width="190" height="120" as="geometry" />
        </mxCell>
        <mxCell id="NZ8LgTM2WEyXukrceLkX-18" value="" style="edgeStyle=orthogonalEdgeStyle;rounded=0;orthogonalLoop=1;jettySize=auto;html=1;" edge="1" parent="1" source="NZ8LgTM2WEyXukrceLkX-17" target="NZ8LgTM2WEyXukrceLkX-15">
          <mxGeometry relative="1" as="geometry" />
        </mxCell>
        <mxCell id="NZ8LgTM2WEyXukrceLkX-17" value="LOGIN/SIGNUP" style="ellipse;whiteSpace=wrap;html=1;" vertex="1" parent="1">
          <mxGeometry x="827" y="430" width="120" height="80" as="geometry" />
        </mxCell>
        <mxCell id="NZ8LgTM2WEyXukrceLkX-24" value="" style="edgeStyle=orthogonalEdgeStyle;rounded=0;orthogonalLoop=1;jettySize=auto;html=1;exitX=0.5;exitY=0;exitDx=0;exitDy=0;" edge="1" parent="1" source="NZ8LgTM2WEyXukrceLkX-20" target="NZ8LgTM2WEyXukrceLkX-23">
          <mxGeometry relative="1" as="geometry">
            <Array as="points">
              <mxPoint x="952" y="10" />
            </Array>
          </mxGeometry>
        </mxCell>
        <mxCell id="NZ8LgTM2WEyXukrceLkX-26" value="" style="edgeStyle=orthogonalEdgeStyle;rounded=0;orthogonalLoop=1;jettySize=auto;html=1;" edge="1" parent="1" source="NZ8LgTM2WEyXukrceLkX-20" target="NZ8LgTM2WEyXukrceLkX-25">
          <mxGeometry relative="1" as="geometry" />
        </mxCell>
        <mxCell id="NZ8LgTM2WEyXukrceLkX-33" style="edgeStyle=orthogonalEdgeStyle;rounded=0;orthogonalLoop=1;jettySize=auto;html=1;exitX=1;exitY=0.5;exitDx=0;exitDy=0;entryX=1;entryY=0.5;entryDx=0;entryDy=0;curved=1;strokeColor=#0066CC;strokeWidth=3;" edge="1" parent="1" source="NZ8LgTM2WEyXukrceLkX-20" target="NZ8LgTM2WEyXukrceLkX-8">
          <mxGeometry relative="1" as="geometry">
            <Array as="points">
              <mxPoint x="1120" y="216" />
              <mxPoint x="1340" y="216" />
              <mxPoint x="1340" y="580" />
              <mxPoint x="800" y="580" />
            </Array>
          </mxGeometry>
        </mxCell>
        <mxCell id="NZ8LgTM2WEyXukrceLkX-20" value="If ONE assigned delivery is started(PICK-UP is made) then &lt;b&gt;Other Assigned Deliveries will be Not avaialble&lt;/b&gt; to start among the list of Deliveries&amp;nbsp;" style="ellipse;whiteSpace=wrap;html=1;" vertex="1" parent="1">
          <mxGeometry x="797" y="140" width="323" height="146" as="geometry" />
        </mxCell>
        <mxCell id="NZ8LgTM2WEyXukrceLkX-22" value="LogiLeet APP" style="ellipse;whiteSpace=wrap;html=1;aspect=fixed;fillColor=#a20025;fontColor=#ffffff;strokeColor=#6F0000;" vertex="1" parent="1">
          <mxGeometry x="170" y="110" width="90" height="90" as="geometry" />
        </mxCell>
        <mxCell id="NZ8LgTM2WEyXukrceLkX-23" value="Also, We need to Make sure the (PICK-UP made) by any driver&lt;b&gt; will not show the delivery details with other driver&#39;s&lt;/b&gt; of Admin brand" style="ellipse;whiteSpace=wrap;html=1;" vertex="1" parent="1">
          <mxGeometry x="239" y="-20" width="320" height="140" as="geometry" />
        </mxCell>
        <mxCell id="NZ8LgTM2WEyXukrceLkX-34" style="edgeStyle=orthogonalEdgeStyle;rounded=0;orthogonalLoop=1;jettySize=auto;html=1;entryX=1;entryY=0.5;entryDx=0;entryDy=0;curved=1;strokeColor=#0066CC;strokeWidth=3;" edge="1" parent="1" source="NZ8LgTM2WEyXukrceLkX-25" target="NZ8LgTM2WEyXukrceLkX-28">
          <mxGeometry relative="1" as="geometry">
            <Array as="points">
              <mxPoint x="1120" y="762" />
            </Array>
          </mxGeometry>
        </mxCell>
        <mxCell id="NZ8LgTM2WEyXukrceLkX-25" value="Showing UI Focusing on the Assigned Delivery only&amp;nbsp;&lt;div&gt;Having Options like&lt;/div&gt;&lt;div&gt;Drop {&lt;b&gt;DELIVERED&lt;/b&gt;} (Enabled driver can click on it),&lt;/div&gt;&lt;div&gt;Pick-UP {&lt;b&gt;ON_ROUTE&lt;/b&gt;} (Disabled as Driver already made a hit on it),&lt;span style=&quot;background-color: transparent; color: light-dark(rgb(0, 0, 0), rgb(255, 255, 255));&quot;&gt;&amp;nbsp;&lt;/span&gt;&lt;/div&gt;&lt;div&gt;Failed {&lt;b&gt;ABORTT&lt;/b&gt;} (Got some problem after the Driver started for delivery)&amp;nbsp;&lt;/div&gt;&lt;div&gt;+&lt;/div&gt;&lt;div&gt;MAP Integration&lt;/div&gt;" style="ellipse;whiteSpace=wrap;html=1;" vertex="1" parent="1">
          <mxGeometry x="947" y="325" width="363" height="200" as="geometry" />
        </mxCell>
        <mxCell id="NZ8LgTM2WEyXukrceLkX-48" style="edgeStyle=orthogonalEdgeStyle;rounded=0;orthogonalLoop=1;jettySize=auto;html=1;exitX=0;exitY=1;exitDx=0;exitDy=0;entryX=1;entryY=0;entryDx=0;entryDy=0;" edge="1" parent="1" source="NZ8LgTM2WEyXukrceLkX-27" target="NZ8LgTM2WEyXukrceLkX-47">
          <mxGeometry relative="1" as="geometry" />
        </mxCell>
        <mxCell id="NZ8LgTM2WEyXukrceLkX-27" value="Admin" style="ellipse;whiteSpace=wrap;html=1;aspect=fixed;fillColor=#e51400;strokeColor=#B20000;fontColor=#ffffff;" vertex="1" parent="1">
          <mxGeometry x="-480" y="240" width="80" height="80" as="geometry" />
        </mxCell>
        <mxCell id="NZ8LgTM2WEyXukrceLkX-31" style="edgeStyle=orthogonalEdgeStyle;rounded=0;orthogonalLoop=1;jettySize=auto;html=1;entryX=1;entryY=0.5;entryDx=0;entryDy=0;" edge="1" parent="1" source="NZ8LgTM2WEyXukrceLkX-28" target="NZ8LgTM2WEyXukrceLkX-30">
          <mxGeometry relative="1" as="geometry" />
        </mxCell>
        <mxCell id="NZ8LgTM2WEyXukrceLkX-28" value="Delivery Request Accepted by Assigned Driver:&lt;div&gt;&lt;br&gt;&lt;div&gt;&lt;b&gt;Status&lt;/b&gt;&lt;/div&gt;&lt;div&gt;&lt;b&gt;&lt;font style=&quot;font-size: 14px;&quot;&gt;PENDING&lt;/font&gt;&lt;/b&gt;: Driver Not Picked Up the delivery&lt;/div&gt;&lt;/div&gt;&lt;div&gt;&lt;b&gt;&lt;font style=&quot;font-size: 14px;&quot;&gt;ON_ROUTE&lt;/font&gt;&lt;/b&gt;: Assigned Driver is&amp;nbsp; On the way to deliver&lt;/div&gt;&lt;div&gt;&lt;b&gt;&lt;font style=&quot;font-size: 13px;&quot;&gt;DELIVERED&lt;/font&gt;: &lt;/b&gt;Driver delivered Item at the Drop Location(Successful).&lt;/div&gt;&lt;div&gt;&lt;font style=&quot;&quot;&gt;&lt;b style=&quot;font-size: 14px;&quot;&gt;ABORTT&lt;/b&gt;&lt;b style=&quot;font-size: 13px;&quot;&gt;: &lt;/b&gt;&lt;font&gt;Something Went Wrong&lt;/font&gt;&lt;/font&gt;&lt;/div&gt;&lt;div&gt;+&lt;/div&gt;&lt;div&gt;Map Tracking.&lt;/div&gt;" style="whiteSpace=wrap;html=1;" vertex="1" parent="1">
          <mxGeometry x="581.5" y="644" width="181" height="236" as="geometry" />
        </mxCell>
        <mxCell id="NZ8LgTM2WEyXukrceLkX-32" value="&lt;b&gt;Current Delivery is Done.&lt;/b&gt;&lt;div&gt;&lt;b&gt;Enabled to make CUSTOMER request Delivery Again.&lt;/b&gt;&lt;/div&gt;" style="edgeStyle=orthogonalEdgeStyle;rounded=0;orthogonalLoop=1;jettySize=auto;html=1;entryX=0;entryY=1;entryDx=0;entryDy=0;" edge="1" parent="1" source="NZ8LgTM2WEyXukrceLkX-30" target="NZ8LgTM2WEyXukrceLkX-3">
          <mxGeometry relative="1" as="geometry" />
        </mxCell>
        <mxCell id="NZ8LgTM2WEyXukrceLkX-30" value="Until One Tracking is Completed or Aborted&lt;div&gt;&lt;br&gt;&lt;/div&gt;&lt;div&gt;No Delivery Request is Made&lt;/div&gt;" style="ellipse;whiteSpace=wrap;html=1;" vertex="1" parent="1">
          <mxGeometry x="170" y="860" width="230" height="130" as="geometry" />
        </mxCell>
        <mxCell id="NZ8LgTM2WEyXukrceLkX-37" style="edgeStyle=orthogonalEdgeStyle;rounded=0;orthogonalLoop=1;jettySize=auto;html=1;entryX=0.5;entryY=1;entryDx=0;entryDy=0;" edge="1" parent="1" source="NZ8LgTM2WEyXukrceLkX-36" target="NZ8LgTM2WEyXukrceLkX-27">
          <mxGeometry relative="1" as="geometry" />
        </mxCell>
        <mxCell id="NZ8LgTM2WEyXukrceLkX-36" value="LOGIN/SIGNUP" style="ellipse;whiteSpace=wrap;html=1;" vertex="1" parent="1">
          <mxGeometry x="-500" y="470" width="120" height="80" as="geometry" />
        </mxCell>
        <mxCell id="NZ8LgTM2WEyXukrceLkX-38" value="Add Available Vehicles" style="ellipse;whiteSpace=wrap;html=1;" vertex="1" parent="1">
          <mxGeometry x="-280" y="120" width="90" height="60" as="geometry" />
        </mxCell>
        <mxCell id="NZ8LgTM2WEyXukrceLkX-50" value="For Every Customer&amp;nbsp;&lt;div&gt;Delivery Request&lt;/div&gt;" style="edgeStyle=orthogonalEdgeStyle;rounded=0;orthogonalLoop=1;jettySize=auto;html=1;" edge="1" parent="1" source="NZ8LgTM2WEyXukrceLkX-41">
          <mxGeometry relative="1" as="geometry">
            <mxPoint x="-650" y="180" as="targetPoint" />
          </mxGeometry>
        </mxCell>
        <mxCell id="NZ8LgTM2WEyXukrceLkX-41" value="List of Customer Delivery Requests" style="ellipse;whiteSpace=wrap;html=1;" vertex="1" parent="1">
          <mxGeometry x="-690" y="246" width="120" height="80" as="geometry" />
        </mxCell>
        <mxCell id="NZ8LgTM2WEyXukrceLkX-43" style="edgeStyle=orthogonalEdgeStyle;rounded=0;orthogonalLoop=1;jettySize=auto;html=1;entryX=1.008;entryY=0.426;entryDx=0;entryDy=0;entryPerimeter=0;" edge="1" parent="1" source="NZ8LgTM2WEyXukrceLkX-27" target="NZ8LgTM2WEyXukrceLkX-41">
          <mxGeometry relative="1" as="geometry" />
        </mxCell>
        <mxCell id="NZ8LgTM2WEyXukrceLkX-45" value="Assign Available&amp;nbsp; Drivers" style="ellipse;whiteSpace=wrap;html=1;" vertex="1" parent="1">
          <mxGeometry x="-440" y="120" width="90" height="60" as="geometry" />
        </mxCell>
        <mxCell id="NZ8LgTM2WEyXukrceLkX-47" value="Add All Vehicles Present" style="ellipse;whiteSpace=wrap;html=1;" vertex="1" parent="1">
          <mxGeometry x="-650" y="390" width="110" height="70" as="geometry" />
        </mxCell>
        <mxCell id="NZ8LgTM2WEyXukrceLkX-57" style="edgeStyle=orthogonalEdgeStyle;rounded=0;orthogonalLoop=1;jettySize=auto;html=1;curved=1;strokeWidth=3;strokeColor=light-dark(#f50a0a, #ededed);" edge="1" parent="1" source="NZ8LgTM2WEyXukrceLkX-49" target="NZ8LgTM2WEyXukrceLkX-8">
          <mxGeometry relative="1" as="geometry">
            <Array as="points">
              <mxPoint x="-300" y="460" />
              <mxPoint x="672" y="460" />
            </Array>
          </mxGeometry>
        </mxCell>
        <mxCell id="NZ8LgTM2WEyXukrceLkX-60" value="For Every Assigned Delivery Request Tracking Page" style="edgeStyle=orthogonalEdgeStyle;rounded=0;orthogonalLoop=1;jettySize=auto;html=1;entryX=0.5;entryY=1;entryDx=0;entryDy=0;" edge="1" parent="1" source="NZ8LgTM2WEyXukrceLkX-49" target="NZ8LgTM2WEyXukrceLkX-59">
          <mxGeometry relative="1" as="geometry" />
        </mxCell>
        <mxCell id="NZ8LgTM2WEyXukrceLkX-49" value="&lt;b&gt;{Vehicle Driver&lt;/b&gt;&amp;nbsp;} &lt;b&gt;&lt;u&gt;AVAILABLE&amp;nbsp;&amp;nbsp;&lt;/u&gt;&lt;/b&gt;=&amp;gt;&amp;nbsp; Availability is based on Vehicle is might busy selected Drop and Pick UP TIMES&lt;div&gt;&lt;br&gt;&lt;/div&gt;" style="rounded=0;whiteSpace=wrap;html=1;fillColor=none;verticalAlign=top;" vertex="1" parent="1">
          <mxGeometry x="-450" y="60" width="300" height="140" as="geometry" />
        </mxCell>
        <mxCell id="NZ8LgTM2WEyXukrceLkX-54" style="edgeStyle=orthogonalEdgeStyle;rounded=0;orthogonalLoop=1;jettySize=auto;html=1;entryX=0;entryY=0.5;entryDx=0;entryDy=0;" edge="1" parent="1" source="NZ8LgTM2WEyXukrceLkX-53" target="NZ8LgTM2WEyXukrceLkX-49">
          <mxGeometry relative="1" as="geometry" />
        </mxCell>
        <mxCell id="NZ8LgTM2WEyXukrceLkX-53" value="Admin will decide the Pick-UP &amp;amp; Drop Times&lt;div&gt;+&lt;/div&gt;&lt;div&gt;Based on the Historical Routes We will automatically Suggest Drop Timing&lt;/div&gt;" style="rounded=0;whiteSpace=wrap;html=1;" vertex="1" parent="1">
          <mxGeometry x="-730" y="60" width="180" height="117.5" as="geometry" />
        </mxCell>
        <mxCell id="NZ8LgTM2WEyXukrceLkX-59" value="Showing the Corresponding the Request Tracking UI&amp;nbsp;&lt;div&gt;&lt;br&gt;&lt;/div&gt;&lt;div&gt;DELIVERY STATUS&lt;/div&gt;&lt;div&gt;+&lt;/div&gt;&lt;div&gt;MAP Integration&amp;nbsp;&lt;/div&gt;" style="rounded=0;whiteSpace=wrap;html=1;" vertex="1" parent="1">
          <mxGeometry x="-740" y="-220" width="400" height="140" as="geometry" />
        </mxCell>
        <mxCell id="NZ8LgTM2WEyXukrceLkX-63" style="edgeStyle=orthogonalEdgeStyle;rounded=0;orthogonalLoop=1;jettySize=auto;html=1;entryX=0;entryY=1;entryDx=0;entryDy=0;curved=1;strokeColor=light-dark(#590303, #ededed);strokeWidth=3;" edge="1" parent="1" source="NZ8LgTM2WEyXukrceLkX-61" target="NZ8LgTM2WEyXukrceLkX-15">
          <mxGeometry relative="1" as="geometry">
            <Array as="points">
              <mxPoint x="330" y="380" />
              <mxPoint x="630" y="380" />
              <mxPoint x="630" y="400" />
              <mxPoint x="859" y="400" />
            </Array>
          </mxGeometry>
        </mxCell>
        <mxCell id="NZ8LgTM2WEyXukrceLkX-61" value="For Every Assigned Driver we Need to Notify them before 30 MIN of the Pick-UP Time of the Delivery" style="ellipse;whiteSpace=wrap;html=1;" vertex="1" parent="1">
          <mxGeometry x="170" y="202" width="320" height="124" as="geometry" />
        </mxCell>
      </root>
    </mxGraphModel>
  </diagram>
</mxfile>
